<?xml version="1.0" standalone="no"?>
<!DOCTYPE svg PUBLIC "-//W3C//DTD SVG 20010904//EN"
 "http://www.w3.org/TR/2001/REC-SVG-20010904/DTD/svg10.dtd">
<svg version="1.0" xmlns="http://www.w3.org/2000/svg"
 width="1552.000000pt" height="1552.000000pt" viewBox="0 0 1552.000000 1552.000000"
 preserveAspectRatio="xMidYMid meet">
<metadata>
Created by potrace 1.11, written by Peter Selinger 2001-2013
</metadata>
<g transform="translate(0.000000,1552.000000) scale(0.100000,-0.100000)"
fill="#000000" stroke="none">
<path d="M5643 15249 c-619 -45 -1212 -317 -1653 -759 -423 -424 -676 -949
-752 -1560 -11 -85 -13 -1066 -13 -5180 0 -4819 1 -5081 18 -5199 71 -496 258
-937 556 -1310 453 -567 1129 -919 1866 -971 189 -13 4001 -13 4190 0 349 25
661 108 970 260 286 140 488 284 704 501 457 456 716 1034 761 1694 8 113 10
1629 8 5150 -4 5458 1 5020 -58 5305 -237 1144 -1207 1986 -2385 2070 -169 12
-4045 11 -4212 -1z m4457 -137 c262 -51 456 -114 676 -221 253 -123 469 -276
665 -471 144 -143 219 -235 332 -405 186 -281 315 -608 379 -961 l23 -129 0
-5155 c0 -4863 -1 -5161 -18 -5265 -82 -515 -317 -992 -675 -1367 -224 -234
-566 -463 -877 -586 -196 -78 -450 -141 -654 -161 -143 -15 -4239 -15 -4382 0
-390 39 -789 185 -1120 408 -427 287 -744 676 -934 1147 -51 127 -119 367
-147 519 l-23 130 0 5155 c0 4199 2 5171 13 5240 69 446 246 858 518 1207 309
396 773 707 1265 848 127 37 290 70 409 84 41 5 1056 8 2255 7 l2180 -2 115
-22z"/>
<path d="M7126 13448 c-19 -62 -69 -225 -111 -363 -42 -137 -110 -360 -151
-495 -42 -135 -109 -353 -149 -485 -40 -132 -107 -351 -149 -487 -153 -498
-228 -743 -301 -983 -41 -135 -109 -355 -150 -490 -41 -135 -109 -356 -151
-492 -41 -137 -103 -336 -136 -443 -82 -265 -128 -422 -128 -437 0 -10 105
-13 510 -13 l509 0 20 68 c11 37 65 225 120 417 56 193 105 360 111 373 l10
22 796 -2 797 -3 125 -437 125 -438 514 0 c486 0 514 1 509 18 -3 9 -24 78
-46 152 -23 74 -68 223 -101 330 -91 296 -199 648 -283 923 -42 136 -110 357
-151 492 -41 135 -109 355 -150 490 -41 135 -108 354 -149 488 -162 529 -227
742 -299 977 -42 135 -117 380 -167 545 -50 165 -97 318 -104 340 l-13 40
-611 3 -611 2 -35 -112z m1008 -2284 c97 -341 176 -623 176 -627 0 -4 -243 -7
-541 -7 -510 0 -540 1 -535 18 3 9 120 422 261 917 141 495 261 916 267 934
12 39 -18 140 372 -1235z"/>
<path d="M7706 7715 c-195 -55 -366 -219 -482 -460 -88 -184 -124 -316 -145
-535 -28 -296 37 -521 311 -1085 165 -340 260 -552 300 -675 38 -116 67 -267
56 -295 -10 -27 -67 -17 -135 22 -87 52 -191 152 -425 407 -339 371 -468 491
-598 557 -76 38 -134 45 -228 25 -112 -23 -206 -74 -298 -161 -208 -195 -331
-484 -364 -853 -13 -154 -1 -342 32 -499 79 -374 293 -674 550 -772 52 -19 84
-25 160 -25 85 -1 101 2 146 26 120 63 277 212 539 513 275 314 395 433 489
480 56 28 126 34 126 11 0 -16 -51 -246 -155 -701 -36 -159 -98 -429 -137
-600 -38 -170 -92 -406 -119 -524 -27 -117 -49 -215 -49 -217 0 -2 252 -4 560
-4 309 0 560 4 560 9 0 4 -48 201 -106 437 -190 772 -384 1580 -384 1598 0 3
20 6 44 6 111 0 222 -96 582 -501 397 -447 521 -549 681 -557 223 -12 455 157
601 436 112 215 164 440 164 717 1 265 -42 474 -136 671 -68 141 -122 222
-205 304 -86 85 -160 133 -257 166 -242 81 -357 13 -792 -465 -379 -418 -513
-531 -628 -531 -44 0 -49 13 -34 97 27 162 112 367 378 916 306 632 355 860
272 1268 -77 379 -296 686 -556 781 -75 27 -244 34 -318 13z"/>
</g>
</svg>
